<svg xmlns="http://www.w3.org/2000/svg" xmlns:xlink="http://www.w3.org/1999/xlink" width="500" zoomAndPan="magnify" viewBox="0 0 375 374.999991" height="500" preserveAspectRatio="xMidYMid meet" version="1.2"><defs><clipPath id="64d635596e"><path d="M 17.695312 21.097656 L 350.5 21.097656 L 350.5 353.902344 L 17.695312 353.902344 Z M 17.695312 21.097656 "/></clipPath><clipPath id="947f017c65"><path d="M 184.097656 21.097656 C 92.195312 21.097656 17.695312 95.597656 17.695312 187.5 C 17.695312 279.402344 92.195312 353.902344 184.097656 353.902344 C 276 353.902344 350.5 279.402344 350.5 187.5 C 350.5 95.597656 276 21.097656 184.097656 21.097656 Z M 184.097656 21.097656 "/></clipPath><clipPath id="cf68093d02"><path d="M 0.695312 0.0976562 L 333.5 0.0976562 L 333.5 332.902344 L 0.695312 332.902344 Z M 0.695312 0.0976562 "/></clipPath><clipPath id="30f84e3579"><path d="M 167.097656 0.0976562 C 75.195312 0.0976562 0.695312 74.597656 0.695312 166.5 C 0.695312 258.402344 75.195312 332.902344 167.097656 332.902344 C 259 332.902344 333.5 258.402344 333.5 166.5 C 333.5 74.597656 259 0.0976562 167.097656 0.0976562 Z M 167.097656 0.0976562 "/></clipPath><clipPath id="54bd0a304b"><rect x="0" width="334" y="0" height="333"/></clipPath><clipPath id="385e622485"><path d="M 17.695312 21.097656 L 350.496094 21.097656 L 350.496094 353.898438 L 17.695312 353.898438 Z M 17.695312 21.097656 "/></clipPath><clipPath id="3c2847507f"><path d="M 184.09375 21.097656 C 92.195312 21.097656 17.695312 95.597656 17.695312 187.496094 C 17.695312 279.398438 92.195312 353.898438 184.09375 353.898438 C 275.996094 353.898438 350.496094 279.398438 350.496094 187.496094 C 350.496094 95.597656 275.996094 21.097656 184.09375 21.097656 Z M 184.09375 21.097656 "/></clipPath><clipPath id="44e4b4228a"><path d="M 156 42.601562 L 163 42.601562 L 163 49 L 156 49 Z M 156 42.601562 "/></clipPath><clipPath id="9f5fba37fe"><path d="M 18 118 L 104 118 L 104 229.351562 L 18 229.351562 Z M 18 118 "/></clipPath><clipPath id="20e527aa60"><rect x="0" width="136" y="0" height="39"/></clipPath><clipPath id="73413682f3"><rect x="0" width="111" y="0" height="33"/></clipPath></defs><g id="2410b466e4"><g clip-rule="nonzero" clip-path="url(#64d635596e)"><g clip-rule="nonzero" clip-path="url(#947f017c65)"><g transform="matrix(1,0,0,1,17,21)"><g clip-path="url(#54bd0a304b)"><g clip-rule="nonzero" clip-path="url(#cf68093d02)"><g clip-rule="nonzero" clip-path="url(#30f84e3579)"><path style=" stroke:none;fill-rule:nonzero;fill:#1800ad;fill-opacity:1;" d="M 0.695312 0.0976562 L 333.5 0.0976562 L 333.5 332.902344 L 0.695312 332.902344 Z M 0.695312 0.0976562 "/></g></g></g></g></g></g><g clip-rule="nonzero" clip-path="url(#385e622485)"><g clip-rule="nonzero" clip-path="url(#3c2847507f)"><path style="fill:none;stroke-width:8;stroke-linecap:butt;stroke-linejoin:miter;stroke:#db9141;stroke-opacity:1;stroke-miterlimit:4;" d="M 221.864701 0.0000882606 C 99.333443 0.0000882606 0.000102989 99.333428 0.000102989 221.864686 C 0.000102989 344.401153 99.333443 443.734492 221.864701 443.734492 C 344.401167 443.734492 443.734507 344.401153 443.734507 221.864686 C 443.734507 99.333428 344.401167 0.0000882606 221.864701 0.0000882606 Z M 221.864701 0.0000882606 " transform="matrix(0.75,0,0,0.75,17.695235,21.09759)"/></g></g><g clip-rule="nonzero" clip-path="url(#44e4b4228a)"><path style=" stroke:none;fill-rule:nonzero;fill:#ffffff;fill-opacity:1;" d="M 159.101562 48.535156 C 160.738281 48.535156 162.070312 47.207031 162.070312 45.570312 C 162.070312 43.933594 160.738281 42.601562 159.101562 42.601562 C 157.464844 42.601562 156.132812 43.933594 156.132812 45.570312 C 156.132812 47.207031 157.464844 48.535156 159.101562 48.535156 Z M 159.101562 44.101562 C 159.910156 44.101562 160.566406 44.761719 160.566406 45.570312 C 160.566406 46.375 159.910156 47.035156 159.101562 47.035156 C 158.292969 47.035156 157.632812 46.375 157.632812 45.570312 C 157.632812 44.761719 158.292969 44.101562 159.101562 44.101562 Z M 159.101562 44.101562 "/></g><path style=" stroke:none;fill-rule:nonzero;fill:#ffffff;fill-opacity:1;" d="M 225.902344 76.792969 C 229.492188 76.792969 232.410156 73.871094 232.410156 70.285156 C 232.410156 66.695312 229.492188 63.773438 225.902344 63.773438 C 222.3125 63.773438 219.394531 66.695312 219.394531 70.285156 C 219.394531 73.871094 222.3125 76.792969 225.902344 76.792969 Z M 225.902344 65.277344 C 228.664062 65.277344 230.90625 67.523438 230.90625 70.285156 C 230.90625 73.042969 228.664062 75.289062 225.902344 75.289062 C 223.140625 75.289062 220.894531 73.042969 220.894531 70.285156 C 220.894531 67.523438 223.140625 65.277344 225.902344 65.277344 Z M 225.902344 65.277344 "/><path style=" stroke:none;fill-rule:nonzero;fill:#ffffff;fill-opacity:1;" d="M 187.628906 122.789062 C 187.628906 126.363281 190.371094 129.304688 193.863281 129.628906 L 193.207031 130.824219 L 178.453125 130.824219 C 175.453125 130.824219 175.453125 141.722656 178.453125 141.722656 L 187.230469 141.722656 L 184.796875 146.160156 C 184.09375 145.613281 183.214844 145.285156 182.257812 145.285156 C 179.964844 145.285156 178.097656 147.152344 178.097656 149.445312 C 178.097656 151.25 179.253906 152.785156 180.859375 153.359375 C 180.464844 154.097656 180.109375 154.851562 179.777344 155.617188 C 178.960938 155.199219 178.042969 154.957031 177.066406 154.957031 C 173.769531 154.957031 171.085938 157.640625 171.085938 160.9375 C 171.085938 161.488281 171.167969 162.019531 171.308594 162.527344 L 159 161.027344 C 161.277344 161.007812 163.128906 159.148438 163.128906 156.867188 C 163.128906 154.574219 161.261719 152.707031 158.96875 152.707031 C 156.671875 152.707031 154.808594 154.574219 154.808594 156.867188 C 154.808594 158.8125 156.152344 160.445312 157.960938 160.898438 L 140.703125 158.792969 L 140.558594 159.988281 L 171.816406 163.800781 C 172.101562 164.316406 172.460938 164.789062 172.878906 165.199219 L 148.105469 161.765625 L 148.019531 162.359375 L 173.789062 165.933594 C 174.730469 166.554688 175.855469 166.917969 177.066406 166.917969 C 177.15625 166.917969 177.242188 166.90625 177.332031 166.902344 C 177.328125 167.089844 177.3125 167.273438 177.3125 167.460938 L 177.3125 171.671875 C 177.101562 171.648438 176.886719 171.632812 176.667969 171.632812 C 175.234375 171.632812 173.917969 172.140625 172.886719 172.984375 L 144.390625 162.546875 L 144.183594 163.109375 L 172.390625 173.445312 C 172.007812 173.839844 171.675781 174.28125 171.410156 174.769531 L 139.917969 162.527344 L 139.484375 163.648438 L 170.945312 175.878906 C 170.78125 176.429688 170.6875 177.011719 170.6875 177.613281 C 170.6875 178.234375 170.785156 178.832031 170.960938 179.394531 C 170.886719 179.390625 170.816406 179.382812 170.746094 179.382812 C 164.691406 179.382812 159.769531 184.304688 159.769531 190.359375 C 159.769531 196.410156 164.691406 201.332031 170.746094 201.332031 C 170.785156 201.332031 170.820312 201.328125 170.859375 201.328125 C 171.742188 203.847656 174.140625 205.664062 176.960938 205.664062 C 177.324219 205.664062 177.683594 205.628906 178.03125 205.570312 C 179.355469 205.347656 180.539062 204.726562 181.460938 203.832031 C 183.578125 205.628906 186.261719 206.632812 189.050781 206.632812 L 311.988281 206.632812 C 314.992188 206.632812 317.878906 205.480469 320.058594 203.414062 C 322.398438 201.199219 323.726562 198.117188 323.726562 194.894531 L 323.726562 167.460938 C 323.726562 162.441406 322.460938 157.5 320.046875 153.097656 L 313.808594 141.722656 L 322.585938 141.722656 C 325.582031 141.722656 325.582031 130.824219 322.585938 130.824219 L 307.832031 130.824219 L 295.550781 108.433594 C 293.441406 104.585938 289.429688 102.160156 285.042969 102.082031 L 250.519531 101.46875 L 250.191406 101.472656 C 250.332031 101.054688 250.410156 100.609375 250.410156 100.148438 C 250.410156 97.851562 248.542969 95.984375 246.25 95.984375 C 243.957031 95.984375 242.089844 97.851562 242.089844 100.148438 C 242.089844 100.664062 242.1875 101.15625 242.363281 101.613281 L 231.34375 101.808594 C 231.238281 97.378906 227.609375 93.800781 223.15625 93.800781 C 218.636719 93.800781 214.957031 97.480469 214.957031 102 C 214.957031 102.050781 214.964844 102.101562 214.964844 102.152344 C 210.988281 102.558594 207.429688 104.890625 205.488281 108.433594 L 199.917969 118.585938 C 198.660156 116.96875 196.703125 115.921875 194.5 115.921875 C 190.710938 115.921875 187.628906 119.003906 187.628906 122.789062 Z M 158.96875 154.210938 C 160.433594 154.210938 161.625 155.402344 161.625 156.867188 C 161.625 158.332031 160.433594 159.523438 158.96875 159.523438 C 157.5 159.523438 156.308594 158.332031 156.308594 156.867188 C 156.308594 155.402344 157.5 154.210938 158.96875 154.210938 Z M 199.109375 120.058594 L 194.675781 128.148438 C 194.617188 128.152344 194.558594 128.15625 194.5 128.15625 C 191.539062 128.15625 189.132812 125.75 189.132812 122.789062 C 189.132812 119.832031 191.539062 117.421875 194.5 117.421875 C 196.460938 117.421875 198.175781 118.484375 199.109375 120.058594 Z M 194.933594 149.398438 C 192.464844 149.398438 190.457031 147.390625 190.457031 144.921875 C 190.457031 142.453125 192.464844 140.445312 194.933594 140.445312 C 197.402344 140.445312 199.410156 142.453125 199.410156 144.921875 C 199.410156 147.390625 197.402344 149.398438 194.933594 149.398438 Z M 187.203125 160.914062 C 187.421875 157.125 190.675781 154.230469 194.464844 154.449219 C 195.363281 154.5 196.234375 154.734375 197 155.09375 L 213.074219 162.675781 C 214.789062 163.484375 215.523438 165.527344 214.714844 167.242188 C 214.101562 168.546875 212.769531 169.28125 211.414062 169.207031 L 193.671875 168.179688 C 189.878906 167.957031 186.984375 164.707031 187.203125 160.914062 Z M 224.601562 165.261719 C 224.601562 163.796875 225.792969 162.605469 227.257812 162.605469 C 228.722656 162.605469 229.914062 163.796875 229.914062 165.261719 C 229.914062 166.726562 228.722656 167.921875 227.257812 167.921875 C 225.792969 167.921875 224.601562 166.726562 224.601562 165.261719 Z M 176.960938 204.164062 C 174.222656 204.164062 171.992188 201.933594 171.992188 199.195312 C 171.992188 196.457031 174.222656 194.230469 176.960938 194.230469 C 179.699219 194.230469 181.925781 196.457031 181.925781 199.195312 C 181.925781 201.933594 179.699219 204.164062 176.960938 204.164062 Z M 170.746094 180.886719 C 171.066406 180.886719 171.386719 180.902344 171.699219 180.933594 C 172.773438 182.535156 174.597656 183.59375 176.667969 183.59375 C 176.886719 183.59375 177.101562 183.578125 177.3125 183.554688 L 177.3125 192.746094 C 177.195312 192.738281 177.078125 192.726562 176.960938 192.726562 C 173.390625 192.726562 170.488281 195.628906 170.488281 199.195312 C 170.488281 199.40625 170.503906 199.613281 170.523438 199.820312 C 165.402344 199.699219 161.273438 195.503906 161.273438 190.359375 C 161.273438 185.136719 165.523438 180.886719 170.746094 180.886719 Z M 172.191406 177.613281 C 172.191406 175.144531 174.199219 173.136719 176.667969 173.136719 C 179.136719 173.136719 181.144531 175.144531 181.144531 177.613281 C 181.144531 180.082031 179.136719 182.089844 176.667969 182.089844 C 174.199219 182.089844 172.191406 180.082031 172.191406 177.613281 Z M 172.589844 160.9375 C 172.589844 158.46875 174.597656 156.460938 177.066406 156.460938 C 179.535156 156.460938 181.542969 158.46875 181.542969 160.9375 C 181.542969 163.40625 179.535156 165.414062 177.066406 165.414062 C 174.597656 165.414062 172.589844 163.40625 172.589844 160.9375 Z M 184.917969 149.445312 C 184.917969 150.914062 183.722656 152.105469 182.257812 152.105469 C 180.792969 152.105469 179.601562 150.914062 179.601562 149.445312 C 179.601562 147.980469 180.792969 146.789062 182.257812 146.789062 C 183.722656 146.789062 184.917969 147.980469 184.917969 149.445312 Z M 198.859375 189.808594 C 198.859375 192.546875 196.632812 194.773438 193.894531 194.773438 C 191.152344 194.773438 188.925781 192.546875 188.925781 189.808594 C 188.925781 187.066406 191.152344 184.839844 193.894531 184.839844 C 196.632812 184.839844 198.859375 187.066406 198.859375 189.808594 Z M 271.796875 197.902344 C 271.796875 198.558594 271.261719 199.089844 270.605469 199.089844 L 230.433594 199.089844 C 229.777344 199.089844 229.242188 198.558594 229.242188 197.902344 L 229.242188 190.171875 C 229.242188 189.511719 229.777344 188.980469 230.433594 188.980469 L 270.605469 188.980469 C 271.261719 188.980469 271.796875 189.511719 271.796875 190.171875 Z M 239.160156 154.160156 C 239.160156 152.695312 240.351562 151.503906 241.816406 151.503906 C 243.285156 151.503906 244.476562 152.695312 244.476562 154.160156 C 244.476562 155.625 243.285156 156.820312 241.816406 156.820312 C 240.351562 156.820312 239.160156 155.625 239.160156 154.160156 Z M 313.191406 158.378906 C 314.808594 161.816406 313.339844 165.914062 309.902344 167.53125 C 309.089844 167.917969 308.214844 168.125 307.367188 168.179688 L 289.625 169.207031 C 287.734375 169.316406 286.109375 167.871094 286 165.976562 C 285.917969 164.539062 286.734375 163.253906 287.964844 162.675781 L 304.039062 155.09375 C 307.472656 153.472656 311.570312 154.945312 313.191406 158.378906 Z M 243.59375 100.148438 C 243.59375 98.679688 244.785156 97.488281 246.25 97.488281 C 247.714844 97.488281 248.90625 98.679688 248.90625 100.148438 C 248.90625 100.644531 248.761719 101.105469 248.523438 101.503906 L 244.019531 101.582031 C 243.753906 101.167969 243.59375 100.675781 243.59375 100.148438 Z M 216.464844 102.074219 C 216.464844 102.050781 216.460938 102.023438 216.460938 102 C 216.460938 98.308594 219.464844 95.304688 223.15625 95.304688 C 226.792969 95.304688 229.753906 98.222656 229.839844 101.835938 Z M 210.417969 111.140625 C 211.558594 109.058594 213.726562 107.75 216.097656 107.707031 L 250.519531 107.09375 L 284.941406 107.707031 C 287.3125 107.75 289.480469 109.058594 290.617188 111.136719 L 308.292969 143.363281 C 309.078125 144.800781 308.039062 146.554688 306.402344 146.554688 L 200.679688 146.554688 C 200.828125 146.035156 200.910156 145.488281 200.910156 144.921875 C 200.910156 141.703125 198.351562 139.078125 195.164062 138.957031 Z M 210.417969 111.140625 "/><path style=" stroke:none;fill-rule:nonzero;fill:#ffffff;fill-opacity:1;" d="M 161.828125 177.667969 C 161.828125 175.984375 160.460938 174.617188 158.78125 174.617188 C 157.101562 174.617188 155.734375 175.984375 155.734375 177.667969 C 155.734375 179.347656 157.101562 180.714844 158.78125 180.714844 C 160.460938 180.714844 161.828125 179.347656 161.828125 177.667969 Z M 158.78125 179.210938 C 157.929688 179.210938 157.234375 178.519531 157.234375 177.667969 C 157.234375 176.8125 157.929688 176.121094 158.78125 176.121094 C 159.632812 176.121094 160.328125 176.8125 160.328125 177.667969 C 160.328125 178.519531 159.632812 179.210938 158.78125 179.210938 Z M 158.78125 179.210938 "/><path style=" stroke:none;fill-rule:nonzero;fill:#ffffff;fill-opacity:1;" d="M 137.699219 181.226562 C 137.699219 184.503906 140.367188 187.171875 143.648438 187.171875 C 146.925781 187.171875 149.59375 184.503906 149.59375 181.226562 C 149.59375 177.945312 146.925781 175.28125 143.648438 175.28125 C 140.367188 175.28125 137.699219 177.945312 137.699219 181.226562 Z M 139.203125 181.226562 C 139.203125 178.777344 141.195312 176.78125 143.648438 176.78125 C 146.097656 176.78125 148.089844 178.777344 148.089844 181.226562 C 148.089844 183.675781 146.097656 185.667969 143.648438 185.667969 C 141.195312 185.667969 139.203125 183.675781 139.203125 181.226562 Z M 139.203125 181.226562 "/><path style=" stroke:none;fill-rule:nonzero;fill:#ffffff;fill-opacity:1;" d="M 202.242188 103.578125 C 205.414062 103.578125 207.992188 101 207.992188 97.832031 C 207.992188 94.660156 205.414062 92.082031 202.242188 92.082031 C 199.074219 92.082031 196.496094 94.660156 196.496094 97.832031 C 196.496094 101 199.074219 103.578125 202.242188 103.578125 Z M 202.242188 93.585938 C 204.585938 93.585938 206.488281 95.488281 206.488281 97.832031 C 206.488281 100.171875 204.585938 102.074219 202.242188 102.074219 C 199.902344 102.074219 197.996094 100.171875 197.996094 97.832031 C 197.996094 95.488281 199.902344 93.585938 202.242188 93.585938 Z M 202.242188 93.585938 "/><path style=" stroke:none;fill-rule:nonzero;fill:#ffffff;fill-opacity:1;" d="M 189.050781 210.007812 C 185.8125 210.007812 182.707031 208.980469 180.132812 207.089844 L 180.132812 221.699219 C 180.132812 222.613281 180.871094 223.351562 181.785156 223.351562 L 196.871094 223.351562 C 197.785156 223.351562 198.527344 222.613281 198.527344 221.699219 L 198.527344 210.007812 Z M 189.050781 210.007812 "/><path style=" stroke:none;fill-rule:nonzero;fill:#ffffff;fill-opacity:1;" d="M 311.988281 210.007812 L 302.511719 210.007812 L 302.511719 221.699219 C 302.511719 222.613281 303.253906 223.351562 304.167969 223.351562 L 319.253906 223.351562 C 320.167969 223.351562 320.90625 222.613281 320.90625 221.699219 L 320.90625 207.089844 C 318.332031 208.980469 315.226562 210.007812 311.988281 210.007812 Z M 311.988281 210.007812 "/><path style=" stroke:none;fill-rule:nonzero;fill:#ffffff;fill-opacity:1;" d="M 241.664062 109.640625 L 259.375 109.640625 L 259.375 114.101562 L 241.664062 114.101562 Z M 241.664062 109.640625 "/><path style=" stroke:none;fill-rule:nonzero;fill:#ffffff;fill-opacity:1;" d="M 114.882812 159.738281 C 113.84375 159.445312 112.757812 160.015625 112.40625 161.035156 L 106.65625 177.714844 C 106.273438 178.824219 106.902344 180.023438 108.03125 180.34375 L 118.609375 183.308594 C 119.738281 183.625 120.902344 182.925781 121.152344 181.777344 L 124.910156 164.539062 C 125.136719 163.484375 124.507812 162.433594 123.464844 162.144531 Z M 123.492188 164.230469 L 119.738281 181.46875 C 119.691406 181.6875 119.546875 181.800781 119.464844 181.847656 C 119.382812 181.898438 119.214844 181.972656 119 181.910156 L 108.425781 178.945312 C 108.210938 178.886719 108.105469 178.738281 108.058594 178.652344 C 108.015625 178.566406 107.953125 178.394531 108.023438 178.1875 L 113.777344 161.507812 C 113.878906 161.214844 114.191406 161.046875 114.492188 161.132812 L 123.074219 163.539062 C 123.375 163.621094 123.558594 163.925781 123.492188 164.230469 Z M 123.492188 164.230469 "/><path style=" stroke:none;fill-rule:nonzero;fill:#ffffff;fill-opacity:1;" d="M 110.960938 155.070312 L 115.648438 156.382812 L 115.113281 158.289062 L 124.023438 160.789062 L 124.394531 159.457031 L 129.667969 160.933594 L 129.960938 159.886719 L 138.023438 162.144531 L 138.539062 160.300781 L 130.476562 158.042969 L 130.773438 156.992188 L 125.5 155.515625 L 125.871094 154.183594 L 116.964844 151.6875 L 116.433594 153.59375 L 111.679688 152.261719 C 111.667969 153.226562 111.425781 154.191406 110.960938 155.070312 Z M 110.960938 155.070312 "/><path style=" stroke:none;fill-rule:nonzero;fill:#ffffff;fill-opacity:1;" d="M 117.71875 179.558594 L 118.195312 177.441406 L 119.136719 177.652344 L 118.664062 179.769531 Z M 117.71875 179.558594 "/><path style=" stroke:none;fill-rule:nonzero;fill:#ffffff;fill-opacity:1;" d="M 118.675781 175.285156 L 121.144531 164.25 L 122.089844 164.460938 L 119.621094 175.496094 Z M 118.675781 175.285156 "/><path style=" stroke:none;fill-rule:nonzero;fill:#ffffff;fill-opacity:1;" d="M 51.46875 212.878906 C 49.179688 216.339844 50.125 221 53.585938 223.292969 C 54.863281 224.136719 56.300781 224.542969 57.726562 224.542969 C 60.164062 224.542969 62.550781 223.359375 63.996094 221.175781 C 72.421875 208.457031 75.082031 196.785156 75.121094 187.167969 L 57.320312 172.734375 C 60.777344 181.359375 62.875 195.652344 51.46875 212.878906 Z M 51.46875 212.878906 "/><path style=" stroke:none;fill-rule:nonzero;fill:#ffffff;fill-opacity:1;" d="M 86.609375 208.082031 C 86.480469 209.339844 86.355469 210.558594 86.226562 211.738281 L 88.691406 219.519531 C 89.707031 222.71875 92.664062 224.765625 95.855469 224.765625 C 96.605469 224.765625 97.371094 224.652344 98.125 224.410156 C 102.082031 223.160156 104.273438 218.9375 103.019531 214.980469 L 92.484375 181.71875 C 92.28125 181.078125 91.992188 180.476562 91.628906 179.917969 C 88.519531 189.472656 87.507812 199.332031 86.609375 208.082031 Z M 86.609375 208.082031 "/><path style=" stroke:none;fill-rule:nonzero;fill:#ffffff;fill-opacity:1;" d="M 91.761719 123.183594 C 99.09375 124.617188 106.195312 119.839844 107.632812 112.507812 C 109.066406 105.179688 104.285156 98.074219 96.957031 96.636719 C 89.625 95.203125 82.519531 99.984375 81.085938 107.316406 C 79.652344 114.644531 84.433594 121.75 91.761719 123.183594 Z M 91.761719 123.183594 "/><path style=" stroke:none;fill-rule:nonzero;fill:#ffffff;fill-opacity:1;" d="M 77.894531 128.28125 C 77 125.78125 74.246094 124.476562 71.746094 125.375 C 69.246094 126.269531 67.945312 129.023438 68.839844 131.523438 L 76.847656 153.890625 C 77.539062 155.816406 79.363281 157.078125 81.375 157.078125 C 81.535156 157.078125 81.695312 157.070312 81.855469 157.054688 L 101.519531 155.078125 L 102.328125 155.789062 C 104.328125 157.535156 107.367188 157.335938 109.117188 155.335938 C 110.863281 153.335938 110.660156 150.300781 108.664062 148.550781 L 106.28125 146.464844 C 105.277344 145.589844 103.964844 145.167969 102.632812 145.300781 L 84.636719 147.109375 Z M 77.894531 128.28125 "/><g clip-rule="nonzero" clip-path="url(#9f5fba37fe)"><path style=" stroke:none;fill-rule:nonzero;fill:#ffffff;fill-opacity:1;" d="M 42.324219 226.65625 C 46.933594 228.996094 53.117188 229.472656 60.296875 229.472656 C 62.648438 229.472656 65.109375 229.421875 67.65625 229.367188 C 70.359375 229.3125 73.15625 229.253906 76.015625 229.253906 C 82.046875 229.253906 83.507812 222.023438 84.703125 211.5 C 84.828125 210.402344 84.949219 209.265625 85.074219 208.097656 L 85.09375 208.152344 C 85.101562 208.078125 85.105469 208.003906 85.113281 207.929688 C 86 199.277344 87.105469 188.558594 90.503906 178.550781 C 90.472656 178.523438 90.445312 178.496094 90.414062 178.46875 C 90.570312 177.996094 90.730469 177.523438 90.894531 177.054688 C 93.0625 170.886719 96.117188 164.953125 100.53125 159.824219 L 100.9375 160.261719 L 103.402344 157.992188 C 102.679688 157.730469 102.003906 157.34375 101.417969 156.828125 L 101.058594 156.511719 L 100.6875 156.550781 L 98.972656 158.128906 L 99.507812 158.710938 C 95.011719 163.894531 91.882812 169.855469 89.652344 176.046875 C 89.488281 176.507812 89.324219 176.96875 89.167969 177.433594 L 68.960938 161.007812 L 68.964844 161.007812 C 70.027344 156.941406 71.726562 152.875 73.636719 149.015625 L 67.539062 131.988281 C 66.980469 130.429688 67.0625 128.75 67.769531 127.253906 C 68.476562 125.761719 69.726562 124.628906 71.28125 124.074219 C 71.957031 123.832031 72.65625 123.707031 73.367188 123.707031 C 75.976562 123.707031 78.316406 125.359375 79.199219 127.816406 L 81.648438 134.65625 C 84.804688 129.570312 84.785156 122.53125 80.503906 119.789062 C 76.050781 116.9375 68.113281 117.199219 62.433594 124.574219 C 54.679688 134.757812 51.324219 141.953125 48.53125 155.105469 C 48.136719 158.023438 48.398438 160.34375 49.09375 162.207031 C 49.460938 163.765625 50.320312 165.222656 51.660156 166.308594 L 54.429688 168.558594 L 78.835938 188.402344 L 83.945312 204.527344 C 83.851562 205.386719 83.761719 206.230469 83.671875 207.058594 C 83.640625 207.359375 83.609375 207.65625 83.578125 207.953125 C 82.351562 219.5 81.347656 227.75 76.015625 227.75 C 73.140625 227.75 70.335938 227.808594 67.625 227.863281 C 57.515625 228.074219 48.789062 228.253906 43.003906 225.316406 C 35.355469 221.433594 18.800781 223.179688 18.097656 223.253906 L 18.257812 224.75 C 18.425781 224.730469 35.074219 222.976562 42.324219 226.65625 Z M 42.324219 226.65625 "/></g><path style=" stroke:none;fill-rule:nonzero;fill:#ffffff;fill-opacity:1;" d="M 210.234375 138.097656 C 213.046875 138.097656 215.335938 135.808594 215.335938 132.996094 C 215.335938 130.179688 213.046875 127.894531 210.234375 127.894531 C 207.421875 127.894531 205.132812 130.179688 205.132812 132.996094 C 205.132812 135.808594 207.421875 138.097656 210.234375 138.097656 Z M 210.234375 129.394531 C 212.21875 129.394531 213.835938 131.011719 213.835938 132.996094 C 213.835938 134.980469 212.21875 136.59375 210.234375 136.59375 C 208.25 136.59375 206.636719 134.980469 206.636719 132.996094 C 206.636719 131.011719 208.25 129.394531 210.234375 129.394531 Z M 210.234375 129.394531 "/><path style=" stroke:none;fill-rule:nonzero;fill:#ffffff;fill-opacity:1;" d="M 164.988281 147.726562 C 167.28125 147.726562 169.148438 145.859375 169.148438 143.566406 C 169.148438 141.273438 167.28125 139.40625 164.988281 139.40625 C 162.695312 139.40625 160.828125 141.273438 160.828125 143.566406 C 160.828125 145.859375 162.695312 147.726562 164.988281 147.726562 Z M 167.648438 143.566406 C 167.648438 145.03125 166.453125 146.222656 164.988281 146.222656 C 163.523438 146.222656 162.332031 145.03125 162.332031 143.566406 C 162.332031 142.101562 163.523438 140.90625 164.988281 140.90625 C 166.453125 140.90625 167.648438 142.101562 167.648438 143.566406 Z M 167.648438 143.566406 "/><path style=" stroke:none;fill-rule:nonzero;fill:#ffffff;fill-opacity:1;" d="M 159.371094 209.550781 C 159.371094 211.84375 161.238281 213.710938 163.535156 213.710938 C 165.828125 213.710938 167.691406 211.84375 167.691406 209.550781 C 167.691406 207.253906 165.828125 205.390625 163.535156 205.390625 C 161.238281 205.390625 159.371094 207.253906 159.371094 209.550781 Z M 163.535156 212.207031 C 162.066406 212.207031 160.875 211.015625 160.875 209.550781 C 160.875 208.085938 162.066406 206.890625 163.535156 206.890625 C 165 206.890625 166.191406 208.085938 166.191406 209.550781 C 166.191406 211.015625 165 212.207031 163.535156 212.207031 Z M 163.535156 212.207031 "/><path style=" stroke:none;fill-rule:nonzero;fill:#ffffff;fill-opacity:1;" d="M 128.667969 200.550781 C 128.667969 202.84375 130.535156 204.710938 132.828125 204.710938 C 135.121094 204.710938 136.988281 202.84375 136.988281 200.550781 C 136.988281 198.257812 135.121094 196.390625 132.828125 196.390625 C 130.535156 196.390625 128.667969 198.257812 128.667969 200.550781 Z M 130.171875 200.550781 C 130.171875 199.085938 131.363281 197.890625 132.828125 197.890625 C 134.292969 197.890625 135.484375 199.085938 135.484375 200.550781 C 135.484375 202.015625 134.292969 203.207031 132.828125 203.207031 C 131.363281 203.207031 130.171875 202.015625 130.171875 200.550781 Z M 130.171875 200.550781 "/><path style=" stroke:none;fill-rule:nonzero;fill:#ffffff;fill-opacity:1;" d="M 140.503906 74.742188 C 142.140625 74.742188 143.472656 73.410156 143.472656 71.773438 C 143.472656 70.136719 142.140625 68.804688 140.503906 68.804688 C 138.867188 68.804688 137.535156 70.136719 137.535156 71.773438 C 137.535156 73.410156 138.867188 74.742188 140.503906 74.742188 Z M 140.503906 70.308594 C 141.3125 70.308594 141.96875 70.964844 141.96875 71.773438 C 141.96875 72.582031 141.3125 73.238281 140.503906 73.238281 C 139.695312 73.238281 139.039062 72.582031 139.039062 71.773438 C 139.039062 70.964844 139.695312 70.308594 140.503906 70.308594 Z M 140.503906 70.308594 "/><path style=" stroke:none;fill-rule:nonzero;fill:#ffffff;fill-opacity:1;" d="M 170.546875 74.742188 C 172.183594 74.742188 173.515625 73.410156 173.515625 71.773438 C 173.515625 70.136719 172.183594 68.804688 170.546875 68.804688 C 168.910156 68.804688 167.578125 70.136719 167.578125 71.773438 C 167.578125 73.410156 168.910156 74.742188 170.546875 74.742188 Z M 170.546875 70.308594 C 171.355469 70.308594 172.011719 70.964844 172.011719 71.773438 C 172.011719 72.582031 171.355469 73.238281 170.546875 73.238281 C 169.738281 73.238281 169.082031 72.582031 169.082031 71.773438 C 169.082031 70.964844 169.738281 70.308594 170.546875 70.308594 Z M 170.546875 70.308594 "/><path style=" stroke:none;fill-rule:nonzero;fill:#ffffff;fill-opacity:1;" d="M 240.957031 86.148438 C 242.59375 86.148438 243.925781 84.820312 243.925781 83.183594 C 243.925781 81.546875 242.59375 80.214844 240.957031 80.214844 C 239.320312 80.214844 237.988281 81.546875 237.988281 83.183594 C 237.988281 84.820312 239.320312 86.148438 240.957031 86.148438 Z M 240.957031 81.714844 C 241.765625 81.714844 242.421875 82.375 242.421875 83.183594 C 242.421875 83.988281 241.765625 84.648438 240.957031 84.648438 C 240.148438 84.648438 239.492188 83.988281 239.492188 83.183594 C 239.492188 82.375 240.148438 81.714844 240.957031 81.714844 Z M 240.957031 81.714844 "/><path style=" stroke:none;fill-rule:nonzero;fill:#ffffff;fill-opacity:1;" d="M 129.617188 120.660156 C 131.253906 120.660156 132.585938 119.328125 132.585938 117.691406 C 132.585938 116.054688 131.253906 114.722656 129.617188 114.722656 C 127.980469 114.722656 126.648438 116.054688 126.648438 117.691406 C 126.648438 119.328125 127.980469 120.660156 129.617188 120.660156 Z M 129.617188 116.226562 C 130.425781 116.226562 131.082031 116.882812 131.082031 117.691406 C 131.082031 118.5 130.425781 119.15625 129.617188 119.15625 C 128.808594 119.15625 128.152344 118.5 128.152344 117.691406 C 128.152344 116.882812 128.808594 116.226562 129.617188 116.226562 Z M 129.617188 116.226562 "/><path style=" stroke:none;fill-rule:nonzero;fill:#ffffff;fill-opacity:1;" d="M 172.207031 108.683594 C 172.207031 110.976562 174.074219 112.84375 176.371094 112.84375 C 178.664062 112.84375 180.53125 110.976562 180.53125 108.683594 C 180.53125 106.390625 178.664062 104.523438 176.371094 104.523438 C 174.074219 104.523438 172.207031 106.390625 172.207031 108.683594 Z M 176.371094 106.027344 C 177.835938 106.027344 179.027344 107.21875 179.027344 108.683594 C 179.027344 110.148438 177.835938 111.339844 176.371094 111.339844 C 174.902344 111.339844 173.710938 110.148438 173.710938 108.683594 C 173.710938 107.21875 174.902344 106.027344 176.371094 106.027344 Z M 176.371094 106.027344 "/><path style=" stroke:none;fill-rule:nonzero;fill:#ffffff;fill-opacity:1;" d="M 202.375 69.367188 C 204.671875 69.367188 206.535156 67.5 206.535156 65.207031 C 206.535156 62.910156 204.671875 61.046875 202.375 61.046875 C 200.082031 61.046875 198.214844 62.910156 198.214844 65.207031 C 198.214844 67.5 200.082031 69.367188 202.375 69.367188 Z M 202.375 62.546875 C 203.839844 62.546875 205.035156 63.742188 205.035156 65.207031 C 205.035156 66.671875 203.839844 67.863281 202.375 67.863281 C 200.910156 67.863281 199.71875 66.671875 199.71875 65.207031 C 199.71875 63.742188 200.910156 62.546875 202.375 62.546875 Z M 202.375 62.546875 "/><path style=" stroke:none;fill-rule:nonzero;fill:#ffffff;fill-opacity:1;" d="M 236.324219 96.894531 C 238.617188 96.894531 240.484375 95.027344 240.484375 92.734375 C 240.484375 90.441406 238.617188 88.574219 236.324219 88.574219 C 234.03125 88.574219 232.164062 90.441406 232.164062 92.734375 C 232.164062 95.027344 234.03125 96.894531 236.324219 96.894531 Z M 236.324219 90.078125 C 237.789062 90.078125 238.980469 91.269531 238.980469 92.734375 C 238.980469 94.199219 237.789062 95.390625 236.324219 95.390625 C 234.859375 95.390625 233.667969 94.199219 233.667969 92.734375 C 233.667969 91.269531 234.859375 90.078125 236.324219 90.078125 Z M 236.324219 90.078125 "/><path style=" stroke:none;fill-rule:nonzero;fill:#ffffff;fill-opacity:1;" d="M 188.679688 111.917969 C 190.972656 111.917969 192.839844 110.050781 192.839844 107.757812 C 192.839844 105.460938 190.972656 103.597656 188.679688 103.597656 C 186.382812 103.597656 184.515625 105.460938 184.515625 107.757812 C 184.515625 110.050781 186.382812 111.917969 188.679688 111.917969 Z M 188.679688 105.097656 C 190.144531 105.097656 191.335938 106.292969 191.335938 107.757812 C 191.335938 109.222656 190.144531 110.414062 188.679688 110.414062 C 187.210938 110.414062 186.019531 109.222656 186.019531 107.757812 C 186.019531 106.292969 187.210938 105.097656 188.679688 105.097656 Z M 188.679688 105.097656 "/><path style=" stroke:none;fill-rule:nonzero;fill:#ffffff;fill-opacity:1;" d="M 156.921875 122.84375 C 156.921875 125.136719 158.789062 127.003906 161.082031 127.003906 C 163.375 127.003906 165.242188 125.136719 165.242188 122.84375 C 165.242188 120.550781 163.375 118.683594 161.082031 118.683594 C 158.789062 118.683594 156.921875 120.550781 156.921875 122.84375 Z M 161.082031 125.503906 C 159.617188 125.503906 158.425781 124.308594 158.425781 122.84375 C 158.425781 121.378906 159.617188 120.1875 161.082031 120.1875 C 162.546875 120.1875 163.742188 121.378906 163.742188 122.84375 C 163.742188 124.308594 162.546875 125.503906 161.082031 125.503906 Z M 161.082031 125.503906 "/><path style=" stroke:none;fill-rule:nonzero;fill:#ffffff;fill-opacity:1;" d="M 189.671875 91.535156 C 191.964844 91.535156 193.832031 89.667969 193.832031 87.375 C 193.832031 85.082031 191.964844 83.214844 189.671875 83.214844 C 187.375 83.214844 185.511719 85.082031 185.511719 87.375 C 185.511719 89.667969 187.375 91.535156 189.671875 91.535156 Z M 189.671875 84.71875 C 191.136719 84.71875 192.328125 85.910156 192.328125 87.375 C 192.328125 88.839844 191.136719 90.03125 189.671875 90.03125 C 188.203125 90.03125 187.011719 88.839844 187.011719 87.375 C 187.011719 85.910156 188.203125 84.71875 189.671875 84.71875 Z M 189.671875 84.71875 "/><path style=" stroke:none;fill-rule:nonzero;fill:#ffffff;fill-opacity:1;" d="M 153.207031 95.175781 C 155.5 95.175781 157.367188 93.308594 157.367188 91.015625 C 157.367188 88.71875 155.5 86.855469 153.207031 86.855469 C 150.914062 86.855469 149.046875 88.71875 149.046875 91.015625 C 149.046875 93.308594 150.914062 95.175781 153.207031 95.175781 Z M 153.207031 88.355469 C 154.671875 88.355469 155.867188 89.550781 155.867188 91.015625 C 155.867188 92.480469 154.671875 93.671875 153.207031 93.671875 C 151.742188 93.671875 150.550781 92.480469 150.550781 91.015625 C 150.550781 89.550781 151.742188 88.355469 153.207031 88.355469 Z M 153.207031 88.355469 "/><path style=" stroke:none;fill-rule:nonzero;fill:#ffffff;fill-opacity:1;" d="M 268.285156 82.269531 C 270.582031 82.269531 272.445312 80.402344 272.445312 78.109375 C 272.445312 75.816406 270.582031 73.949219 268.285156 73.949219 C 265.992188 73.949219 264.125 75.816406 264.125 78.109375 C 264.125 80.402344 265.992188 82.269531 268.285156 82.269531 Z M 268.285156 75.453125 C 269.75 75.453125 270.945312 76.644531 270.945312 78.109375 C 270.945312 79.574219 269.75 80.769531 268.285156 80.769531 C 266.820312 80.769531 265.628906 79.574219 265.628906 78.109375 C 265.628906 76.644531 266.820312 75.453125 268.285156 75.453125 Z M 268.285156 75.453125 "/><path style=" stroke:none;fill-rule:nonzero;fill:#ffffff;fill-opacity:1;" d="M 217.003906 88.902344 C 219.296875 88.902344 221.164062 87.039062 221.164062 84.742188 C 221.164062 82.449219 219.296875 80.582031 217.003906 80.582031 C 214.707031 80.582031 212.84375 82.449219 212.84375 84.742188 C 212.84375 87.039062 214.707031 88.902344 217.003906 88.902344 Z M 219.660156 84.742188 C 219.660156 86.210938 218.46875 87.402344 217.003906 87.402344 C 215.539062 87.402344 214.34375 86.210938 214.34375 84.742188 C 214.34375 83.277344 215.539062 82.085938 217.003906 82.085938 C 218.46875 82.085938 219.660156 83.277344 219.660156 84.742188 Z M 219.660156 84.742188 "/><path style=" stroke:none;fill-rule:nonzero;fill:#ffffff;fill-opacity:1;" d="M 233.347656 142.953125 C 235.640625 142.953125 237.507812 141.085938 237.507812 138.792969 C 237.507812 136.5 235.640625 134.632812 233.347656 134.632812 C 231.050781 134.632812 229.1875 136.5 229.1875 138.792969 C 229.1875 141.085938 231.050781 142.953125 233.347656 142.953125 Z M 233.347656 136.136719 C 234.8125 136.136719 236.003906 137.328125 236.003906 138.792969 C 236.003906 140.257812 234.8125 141.449219 233.347656 141.449219 C 231.878906 141.449219 230.6875 140.257812 230.6875 138.792969 C 230.6875 137.328125 231.878906 136.136719 233.347656 136.136719 Z M 233.347656 136.136719 "/><path style=" stroke:none;fill-rule:nonzero;fill:#ffffff;fill-opacity:1;" d="M 236.785156 127.402344 C 239.082031 127.402344 240.949219 125.535156 240.949219 123.242188 C 240.949219 120.949219 239.082031 119.082031 236.785156 119.082031 C 234.492188 119.082031 232.625 120.949219 232.625 123.242188 C 232.625 125.535156 234.492188 127.402344 236.785156 127.402344 Z M 236.785156 120.582031 C 238.253906 120.582031 239.445312 121.777344 239.445312 123.242188 C 239.445312 124.707031 238.253906 125.898438 236.785156 125.898438 C 235.320312 125.898438 234.128906 124.707031 234.128906 123.242188 C 234.128906 121.777344 235.320312 120.582031 236.785156 120.582031 Z M 236.785156 120.582031 "/><path style=" stroke:none;fill-rule:nonzero;fill:#ffffff;fill-opacity:1;" d="M 219.515625 123.300781 C 221.808594 123.300781 223.675781 121.433594 223.675781 119.136719 C 223.675781 116.84375 221.808594 114.976562 219.515625 114.976562 C 217.222656 114.976562 215.355469 116.84375 215.355469 119.136719 C 215.355469 121.433594 217.222656 123.300781 219.515625 123.300781 Z M 219.515625 116.480469 C 220.980469 116.480469 222.171875 117.671875 222.171875 119.136719 C 222.171875 120.605469 220.980469 121.796875 219.515625 121.796875 C 218.050781 121.796875 216.859375 120.605469 216.859375 119.136719 C 216.859375 117.671875 218.050781 116.480469 219.515625 116.480469 Z M 219.515625 116.480469 "/><path style=" stroke:none;fill-rule:nonzero;fill:#ffffff;fill-opacity:1;" d="M 280.496094 143.457031 C 282.789062 143.457031 284.65625 141.59375 284.65625 139.296875 C 284.65625 137.003906 282.789062 135.136719 280.496094 135.136719 C 278.203125 135.136719 276.335938 137.003906 276.335938 139.296875 C 276.335938 141.59375 278.203125 143.457031 280.496094 143.457031 Z M 280.496094 136.640625 C 281.960938 136.640625 283.152344 137.832031 283.152344 139.296875 C 283.152344 140.761719 281.960938 141.957031 280.496094 141.957031 C 279.03125 141.957031 277.839844 140.761719 277.839844 139.296875 C 277.839844 137.832031 279.03125 136.640625 280.496094 136.640625 Z M 280.496094 136.640625 "/><g transform="matrix(1,0,0,1,55,247)"><g clip-path="url(#20e527aa60)"><g style="fill:#ffffff;fill-opacity:1;"><g transform="translate(0.654574, 30.6768)"><path style="stroke:none" d="M 12.625 -24.34375 C 15.6875 -24.34375 18.203125 -23.722656 20.171875 -22.484375 C 22.140625 -21.242188 23.148438 -19.40625 23.203125 -16.96875 L 23.203125 -16.5625 L 16 -16.5625 L 16 -16.6875 C 16 -17.382812 15.742188 -17.960938 15.234375 -18.421875 C 14.722656 -18.890625 13.945312 -19.125 12.90625 -19.125 C 11.882812 -19.125 11.097656 -18.972656 10.546875 -18.671875 C 10.003906 -18.367188 9.734375 -18 9.734375 -17.5625 C 9.734375 -16.9375 10.101562 -16.472656 10.84375 -16.171875 C 11.59375 -15.867188 12.789062 -15.554688 14.4375 -15.234375 C 16.363281 -14.835938 17.945312 -14.425781 19.1875 -14 C 20.425781 -13.570312 21.507812 -12.867188 22.4375 -11.890625 C 23.363281 -10.921875 23.835938 -9.601562 23.859375 -7.9375 C 23.859375 -5.101562 22.898438 -3 20.984375 -1.625 C 19.078125 -0.257812 16.523438 0.421875 13.328125 0.421875 C 9.585938 0.421875 6.679688 -0.203125 4.609375 -1.453125 C 2.535156 -2.710938 1.5 -4.929688 1.5 -8.109375 L 8.765625 -8.109375 C 8.765625 -6.898438 9.078125 -6.09375 9.703125 -5.6875 C 10.328125 -5.28125 11.300781 -5.078125 12.625 -5.078125 C 13.601562 -5.078125 14.410156 -5.179688 15.046875 -5.390625 C 15.679688 -5.597656 16 -6.023438 16 -6.671875 C 16 -7.253906 15.644531 -7.691406 14.9375 -7.984375 C 14.226562 -8.273438 13.078125 -8.582031 11.484375 -8.90625 C 9.535156 -9.320312 7.921875 -9.753906 6.640625 -10.203125 C 5.367188 -10.660156 4.253906 -11.410156 3.296875 -12.453125 C 2.347656 -13.492188 1.875 -14.90625 1.875 -16.6875 C 1.875 -19.3125 2.890625 -21.242188 4.921875 -22.484375 C 6.953125 -23.722656 9.519531 -24.34375 12.625 -24.34375 Z M 12.625 -24.34375 "/></g></g><g style="fill:#ffffff;fill-opacity:1;"><g transform="translate(25.759675, 30.6768)"><path style="stroke:none" d="M 16 -23.921875 C 17.476562 -23.921875 18.796875 -23.578125 19.953125 -22.890625 C 21.117188 -22.210938 22.023438 -21.273438 22.671875 -20.078125 C 23.328125 -18.890625 23.65625 -17.550781 23.65625 -16.0625 L 23.65625 -15.609375 C 23.65625 -14.128906 23.328125 -12.785156 22.671875 -11.578125 C 22.023438 -10.378906 21.117188 -9.4375 19.953125 -8.75 C 18.796875 -8.0625 17.476562 -7.71875 16 -7.71875 L 10.265625 -7.71875 L 10.265625 0 L 2.578125 0 L 2.578125 -23.921875 Z M 10.265625 -13.328125 L 13.421875 -13.328125 C 14.234375 -13.328125 14.84375 -13.535156 15.25 -13.953125 C 15.65625 -14.367188 15.859375 -14.9375 15.859375 -15.65625 L 15.859375 -15.9375 C 15.859375 -16.675781 15.65625 -17.25 15.25 -17.65625 C 14.84375 -18.0625 14.234375 -18.265625 13.421875 -18.265625 L 10.265625 -18.265625 Z M 10.265625 -13.328125 "/></g></g><g style="fill:#ffffff;fill-opacity:1;"><g transform="translate(50.864776, 30.6768)"><path style="stroke:none" d="M 18.609375 0 L 17.59375 -3.375 L 9.21875 -3.375 L 8.203125 0 L 0.34375 0 L 9.078125 -23.921875 L 18.015625 -23.921875 L 26.75 0 Z M 10.8125 -8.734375 L 16 -8.734375 L 13.5 -17.25 L 13.359375 -17.25 Z M 10.8125 -8.734375 "/></g></g><g style="fill:#ffffff;fill-opacity:1;"><g transform="translate(77.917081, 30.6768)"><path style="stroke:none" d="M 25.28125 -16.59375 C 25.28125 -15.132812 24.882812 -13.8125 24.09375 -12.625 C 23.3125 -11.445312 22.164062 -10.578125 20.65625 -10.015625 L 25.984375 0 L 17.359375 0 L 13.109375 -8.734375 L 10.265625 -8.734375 L 10.265625 0 L 2.578125 0 L 2.578125 -23.921875 L 17.21875 -23.921875 C 18.9375 -23.921875 20.398438 -23.59375 21.609375 -22.9375 C 22.828125 -22.28125 23.742188 -21.390625 24.359375 -20.265625 C 24.972656 -19.140625 25.28125 -17.914062 25.28125 -16.59375 Z M 17.453125 -16.28125 C 17.453125 -16.90625 17.242188 -17.425781 16.828125 -17.84375 C 16.410156 -18.257812 15.898438 -18.46875 15.296875 -18.46875 L 10.265625 -18.46875 L 10.265625 -14.046875 L 15.296875 -14.046875 C 15.898438 -14.046875 16.410156 -14.257812 16.828125 -14.6875 C 17.242188 -15.125 17.453125 -15.65625 17.453125 -16.28125 Z M 17.453125 -16.28125 "/></g></g><g style="fill:#ffffff;fill-opacity:1;"><g transform="translate(104.969386, 30.6768)"><path style="stroke:none" d="M 18.78125 -23.921875 L 28.3125 -23.921875 L 19.71875 -14.09375 L 28.484375 0 L 19.40625 0 L 14.4375 -8.765625 L 10.265625 -5.359375 L 10.265625 0 L 2.578125 0 L 2.578125 -23.921875 L 10.265625 -23.921875 L 10.265625 -13.703125 Z M 18.78125 -23.921875 "/></g></g></g></g><g transform="matrix(1,0,0,1,196,249)"><g clip-path="url(#73413682f3)"><g style="fill:#ffffff;fill-opacity:1;"><g transform="translate(1.442231, 23.214504)"><path style="stroke:none" d="M 17.625 0 L 14.265625 -11.765625 L 10.90625 0 L 5.59375 0 L -0.375 -20.96875 L 4.9375 -20.96875 L 8.515625 -6.578125 L 8.640625 -6.578125 L 12.453125 -20.96875 L 16.0625 -20.96875 L 19.875 -6.578125 L 20 -6.578125 L 23.59375 -20.96875 L 28.875 -20.96875 L 22.90625 0 Z M 17.625 0 "/></g></g><g style="fill:#ffffff;fill-opacity:1;"><g transform="translate(35.677904, 23.214504)"><path style="stroke:none" d="M 12.171875 -20.96875 L 20.640625 0 L 15.5 0 L 13.953125 -4.1875 L 5.96875 -4.1875 L 4.421875 0 L -0.71875 0 L 7.75 -20.96875 Z M 12.328125 -8.390625 L 9.984375 -14.484375 L 9.9375 -14.484375 L 7.59375 -8.390625 Z M 12.328125 -8.390625 "/></g></g><g style="fill:#ffffff;fill-opacity:1;"><g transform="translate(61.348643, 23.214504)"><path style="stroke:none" d="M 9.25 -21.359375 C 10.382812 -21.359375 11.492188 -21.191406 12.578125 -20.859375 C 13.660156 -20.523438 14.46875 -20.195312 15 -19.875 L 15.765625 -19.375 L 13.828125 -15.5625 C 13.671875 -15.65625 13.457031 -15.78125 13.1875 -15.9375 C 12.914062 -16.101562 12.40625 -16.320312 11.65625 -16.59375 C 10.914062 -16.863281 10.222656 -17 9.578125 -17 C 8.785156 -17 8.171875 -16.828125 7.734375 -16.484375 C 7.304688 -16.148438 7.09375 -15.695312 7.09375 -15.125 C 7.09375 -14.832031 7.191406 -14.5625 7.390625 -14.3125 C 7.597656 -14.070312 7.945312 -13.8125 8.4375 -13.53125 C 8.925781 -13.257812 9.359375 -13.035156 9.734375 -12.859375 C 10.109375 -12.691406 10.6875 -12.4375 11.46875 -12.09375 C 12.820312 -11.519531 13.976562 -10.738281 14.9375 -9.75 C 15.894531 -8.757812 16.375 -7.632812 16.375 -6.375 C 16.375 -5.175781 16.15625 -4.125 15.71875 -3.21875 C 15.289062 -2.320312 14.695312 -1.617188 13.9375 -1.109375 C 13.1875 -0.609375 12.351562 -0.238281 11.4375 0 C 10.519531 0.25 9.53125 0.375 8.46875 0.375 C 7.550781 0.375 6.648438 0.28125 5.765625 0.09375 C 4.890625 -0.0820312 4.15625 -0.3125 3.5625 -0.59375 C 2.96875 -0.875 2.429688 -1.148438 1.953125 -1.421875 C 1.484375 -1.691406 1.140625 -1.921875 0.921875 -2.109375 L 0.578125 -2.390625 L 2.96875 -6.40625 C 3.175781 -6.238281 3.457031 -6.019531 3.8125 -5.75 C 4.164062 -5.488281 4.796875 -5.140625 5.703125 -4.703125 C 6.609375 -4.265625 7.410156 -4.046875 8.109375 -4.046875 C 10.128906 -4.046875 11.140625 -4.726562 11.140625 -6.09375 C 11.140625 -6.382812 11.066406 -6.648438 10.921875 -6.890625 C 10.773438 -7.140625 10.519531 -7.390625 10.15625 -7.640625 C 9.789062 -7.890625 9.46875 -8.082031 9.1875 -8.21875 C 8.90625 -8.363281 8.445312 -8.582031 7.8125 -8.875 C 7.175781 -9.175781 6.707031 -9.40625 6.40625 -9.5625 C 5.132812 -10.1875 4.148438 -10.96875 3.453125 -11.90625 C 2.765625 -12.851562 2.421875 -13.867188 2.421875 -14.953125 C 2.421875 -16.828125 3.113281 -18.363281 4.5 -19.5625 C 5.882812 -20.757812 7.46875 -21.359375 9.25 -21.359375 Z M 9.25 -21.359375 "/></g></g><g style="fill:#ffffff;fill-opacity:1;"><g transform="translate(84.172875, 23.214504)"><path style="stroke:none" d="M 6.296875 -8.421875 L 6.296875 0 L 1.53125 0 L 1.53125 -20.96875 L 6.296875 -20.96875 L 6.296875 -12.609375 L 13.0625 -12.609375 L 13.0625 -20.96875 L 17.84375 -20.96875 L 17.84375 0 L 13.0625 0 L 13.0625 -8.421875 Z M 6.296875 -8.421875 "/></g></g></g></g></g></svg>